<svg width="513" height="513" viewBox="0 0 513 513" fill="none" xmlns="http://www.w3.org/2000/svg">
<path d="M350.827 401.633L334.295 440.54L245.994 438.398L234.064 396.937L271.631 380.644L350.827 401.633Z" fill="black"/>
<path d="M136.971 284.998C145.6 307.249 162.137 325.121 181.842 339.201C194.503 348.249 208.831 356.015 223.992 362.678L210.169 368.673L207.511 367.843C155.209 351.22 110.645 326.023 76.9431 297.067C97.8757 298.662 118.505 294.212 136.971 284.998Z" fill="black"/>
<path d="M196.625 222.309C313.613 245.53 381.876 264.375 489.698 313.033C483.357 325.294 473.761 336.76 461.752 346.688C454.377 352.785 450.689 355.833 432.675 361.5C414.661 367.167 407.187 366.558 392.241 365.341C388.022 364.998 383.555 364.585 378.87 364.093C351.782 361.253 318.845 355.953 286.876 347.162C254.706 338.316 224.625 326.229 202.438 310.375C183.358 296.741 171.365 281.301 167.415 263.585C168.83 262.239 170.228 260.864 171.585 259.449L172.853 258.109C182.447 247.818 190.541 235.771 196.625 222.309Z" fill="black"/>
<path d="M202.085 125.645C253.47 113.854 323.7 118.785 419.411 158.159C435.826 164.912 444.033 168.288 455.061 177.492C466.09 186.697 469.466 191.962 476.218 202.493C492.795 228.35 500.565 254.376 499.165 278.44C392.217 230.559 322.004 211.185 206.935 188.24C210.065 169.2 208.986 150.242 204.211 132.646L203.573 130.379C203.11 128.789 202.609 127.211 202.085 125.645Z" fill="black"/>
<path d="M57.7882 90.7697C76.3696 81.1456 97.5259 78.688 117.609 85.0704L119.977 85.8694C144.246 94.4762 162.132 114.795 169.56 140.289L170.019 141.925C174.475 158.347 174.543 176.667 169.129 194.87L168.569 196.691C164.1 210.75 156.875 222.996 147.848 232.959L146.02 234.922C124.028 257.847 92.7724 267.404 63.8932 258.83L62.5187 258.408C42.3844 252.009 26.5012 237.733 16.893 219.076C6.34391 193.759 4.44781 169.175 11.5585 146.8L12.2568 144.693C19.6859 123.186 35.2115 104.904 57.7882 90.7697Z" fill="black"/>
<path d="M151.726 61.8455C195.955 57.6643 246.879 62.8252 299.168 79.4435L305.132 81.3841C317.725 85.5916 329.873 90.3138 341.523 95.4657C279.37 80.8611 228.016 81.8073 185.604 93.2419C176.628 80.701 165.223 69.933 151.726 61.8455Z" fill="black"/>
</svg>
