<svg width="512" height="512" viewBox="0 0 512 512" fill="none" xmlns="http://www.w3.org/2000/svg">
<g clip-path="url(#clip0_4559_208)">
<path d="M512 0H0V512H512V0Z" fill="url(#paint0_linear_4559_208)"/>
<path d="M310.503 343.882L299.905 368.823L243.3 367.45L235.652 340.871L259.735 330.427L310.503 343.882Z" fill="#85611B"/>
<path d="M173.411 269.113C178.943 283.377 189.543 294.834 202.175 303.86C210.292 309.66 219.477 314.639 229.196 318.91L220.334 322.753L218.63 322.221C185.102 311.565 156.534 295.412 134.93 276.85C148.349 277.872 161.573 275.02 173.411 269.113Z" fill="#85611B"/>
<path d="M211.652 228.926C286.647 243.812 330.407 255.893 399.527 287.085C395.462 294.945 389.31 302.295 381.612 308.659C376.884 312.568 374.52 314.522 362.972 318.155C351.424 321.787 346.633 321.397 337.052 320.617C334.347 320.397 331.484 320.132 328.48 319.817C311.115 317.996 290.001 314.599 269.508 308.963C248.885 303.292 229.601 295.544 215.378 285.381C203.147 276.641 195.459 266.743 192.927 255.386C193.834 254.523 194.73 253.642 195.6 252.735L196.413 251.876C202.563 245.279 207.752 237.556 211.652 228.926Z" fill="#85611B"/>
<path d="M215.152 166.959C248.093 159.401 293.114 162.562 354.469 187.803C364.992 192.132 370.253 194.296 377.323 200.196C384.393 206.097 386.557 209.472 390.885 216.223C401.512 232.799 406.493 249.483 405.596 264.909C337.036 234.215 292.026 221.795 218.261 207.086C220.268 194.881 219.576 182.727 216.515 171.448L216.106 169.994C215.809 168.975 215.488 167.964 215.152 166.959Z" fill="#85611B"/>
<path d="M122.65 144.603C134.562 138.433 148.124 136.858 160.998 140.949L162.517 141.461C178.074 146.979 189.54 160.004 194.302 176.347L194.596 177.396C197.452 187.923 197.496 199.667 194.025 211.336L193.667 212.504C190.802 221.516 186.17 229.367 180.383 235.754L179.212 237.012C165.114 251.708 145.077 257.834 126.564 252.338L125.683 252.067C112.776 247.965 102.594 238.814 96.4346 226.854C89.6721 210.624 88.4566 194.864 93.0149 180.521L93.4625 179.17C98.225 165.383 108.178 153.663 122.65 144.603Z" fill="#85611B"/>
<path d="M182.869 126.061C211.222 123.38 243.867 126.689 277.387 137.342L281.21 138.586C289.283 141.283 297.07 144.31 304.539 147.613C264.696 138.251 231.775 138.857 204.587 146.188C198.833 138.148 191.522 131.245 182.869 126.061Z" fill="#85611B"/>
</g>
<defs>
<linearGradient id="paint0_linear_4559_208" x1="256" y1="0" x2="256" y2="512" gradientUnits="userSpaceOnUse">
<stop stop-color="#FCC58F"/>
<stop offset="1" stop-color="#FFCD70"/>
</linearGradient>
<clipPath id="clip0_4559_208">
<rect width="512" height="512" fill="white"/>
</clipPath>
</defs>
</svg>
